<mxfile host="65bd71144e">
    <diagram id="3Wndlz2RJvUf2OZ2kvY8" name="Page-1">
        <mxGraphModel dx="1136" dy="530" grid="0" gridSize="10" guides="1" tooltips="1" connect="1" arrows="1" fold="1" page="1" pageScale="1" pageWidth="2339" pageHeight="3300" background="#ffffff" math="0" shadow="0">
            <root>
                <mxCell id="0"/>
                <mxCell id="1" parent="0"/>
                <mxCell id="184" value="" style="rounded=0;whiteSpace=wrap;html=1;fontFamily=Courier New;fontSize=14;fontColor=#000000;strokeColor=#000000;fillColor=#F0F0F0;" parent="1" vertex="1">
                    <mxGeometry x="2825" y="2429" width="596" height="473" as="geometry"/>
                </mxCell>
                <mxCell id="130" value="" style="rounded=0;whiteSpace=wrap;html=1;fontFamily=Courier New;fontColor=#000000;strokeColor=#000000;fillColor=#F0F0F0;" parent="1" vertex="1">
                    <mxGeometry x="1072" y="2208" width="860" height="645" as="geometry"/>
                </mxCell>
                <mxCell id="93" value="" style="rounded=0;whiteSpace=wrap;html=1;fontFamily=Courier New;fontColor=#000000;strokeColor=#000000;fillColor=#CCCCCC;" parent="1" vertex="1">
                    <mxGeometry x="354" y="984" width="731" height="587" as="geometry"/>
                </mxCell>
                <mxCell id="3" value="" style="rounded=0;whiteSpace=wrap;html=1;fillColor=#F0F0F0;strokeWidth=2;strokeColor=#000000;align=left;" parent="1" vertex="1">
                    <mxGeometry x="234" y="124" width="838" height="360" as="geometry"/>
                </mxCell>
                <mxCell id="4" value="&lt;span style=&quot;text-align: left&quot;&gt;Runtime&lt;/span&gt;" style="text;html=1;align=center;verticalAlign=middle;resizable=0;points=[];autosize=1;strokeColor=none;fillColor=none;fontSize=14;fontFamily=Courier New;fontColor=#000000;" parent="1" vertex="1">
                    <mxGeometry x="618.5" y="128" width="69" height="21" as="geometry"/>
                </mxCell>
                <mxCell id="10" style="edgeStyle=none;html=1;exitX=0.5;exitY=1;exitDx=0;exitDy=0;entryX=0.5;entryY=0;entryDx=0;entryDy=0;fontFamily=Courier New;fontSize=14;fontColor=#000000;strokeColor=#000000;" parent="1" source="5" target="9" edge="1">
                    <mxGeometry relative="1" as="geometry"/>
                </mxCell>
                <mxCell id="5" value="" style="rounded=1;whiteSpace=wrap;html=1;fontFamily=Courier New;fontSize=14;fontColor=#000000;strokeColor=#000000;strokeWidth=2;fillColor=#F0F0F0;" parent="1" vertex="1">
                    <mxGeometry x="310" y="223" width="177" height="101" as="geometry"/>
                </mxCell>
                <mxCell id="6" value="entities" style="rounded=0;whiteSpace=wrap;html=1;fontFamily=Courier New;fontSize=14;fontColor=#000000;strokeColor=#000000;strokeWidth=2;fillColor=#F0F0F0;" parent="1" vertex="1">
                    <mxGeometry x="321" y="250" width="78" height="60" as="geometry"/>
                </mxCell>
                <mxCell id="7" value="cache" style="rounded=0;whiteSpace=wrap;html=1;fontFamily=Courier New;fontSize=14;fontColor=#000000;strokeColor=#000000;strokeWidth=2;fillColor=#F0F0F0;" parent="1" vertex="1">
                    <mxGeometry x="410" y="250" width="67" height="60" as="geometry"/>
                </mxCell>
                <mxCell id="8" value="&lt;span style=&quot;text-align: left&quot;&gt;state&lt;/span&gt;" style="text;html=1;align=center;verticalAlign=middle;resizable=0;points=[];autosize=1;strokeColor=none;fillColor=none;fontSize=14;fontFamily=Courier New;fontColor=#000000;" parent="1" vertex="1">
                    <mxGeometry x="370" y="225" width="52" height="21" as="geometry"/>
                </mxCell>
                <mxCell id="18" style="edgeStyle=orthogonalEdgeStyle;html=1;exitX=1;exitY=0.5;exitDx=0;exitDy=0;fontFamily=Courier New;fontSize=14;fontColor=#000000;strokeColor=#000000;" parent="1" source="9" target="15" edge="1">
                    <mxGeometry relative="1" as="geometry"/>
                </mxCell>
                <mxCell id="19" style="edgeStyle=orthogonalEdgeStyle;html=1;exitX=1;exitY=0.5;exitDx=0;exitDy=0;fontFamily=Courier New;fontSize=14;fontColor=#000000;strokeColor=#000000;" parent="1" source="9" target="16" edge="1">
                    <mxGeometry relative="1" as="geometry"/>
                </mxCell>
                <mxCell id="9" value="watchers" style="rounded=0;whiteSpace=wrap;html=1;fontFamily=Courier New;fontSize=14;fontColor=#000000;strokeColor=#000000;strokeWidth=2;fillColor=#F0F0F0;" parent="1" vertex="1">
                    <mxGeometry x="350.5" y="406" width="96" height="39" as="geometry"/>
                </mxCell>
                <mxCell id="11" value="patches" style="text;html=1;align=center;verticalAlign=middle;resizable=0;points=[];autosize=1;strokeColor=none;fillColor=none;fontSize=14;fontFamily=Courier New;fontColor=#000000;" parent="1" vertex="1">
                    <mxGeometry x="394" y="366" width="69" height="21" as="geometry"/>
                </mxCell>
                <mxCell id="13" style="edgeStyle=none;html=1;exitX=0.5;exitY=1;exitDx=0;exitDy=0;fontFamily=Courier New;fontSize=14;fontColor=#000000;strokeColor=#000000;" parent="1" source="12" target="8" edge="1">
                    <mxGeometry relative="1" as="geometry"/>
                </mxCell>
                <mxCell id="12" value="event" style="rounded=0;whiteSpace=wrap;html=1;fontFamily=Courier New;fontSize=14;fontColor=#000000;strokeColor=#000000;strokeWidth=2;fillColor=#F0F0F0;" parent="1" vertex="1">
                    <mxGeometry x="367" y="152" width="58" height="32" as="geometry"/>
                </mxCell>
                <mxCell id="14" value="entityID" style="text;html=1;align=center;verticalAlign=middle;resizable=0;points=[];autosize=1;strokeColor=none;fillColor=none;fontSize=14;fontFamily=Courier New;fontColor=#000000;" parent="1" vertex="1">
                    <mxGeometry x="394" y="348" width="77" height="21" as="geometry"/>
                </mxCell>
                <mxCell id="21" style="edgeStyle=orthogonalEdgeStyle;html=1;exitX=1;exitY=0.5;exitDx=0;exitDy=0;entryX=1;entryY=0.5;entryDx=0;entryDy=0;fontFamily=Courier New;fontSize=14;fontColor=#000000;strokeColor=#000000;" parent="1" source="15" target="5" edge="1">
                    <mxGeometry relative="1" as="geometry">
                        <Array as="points">
                            <mxPoint x="810" y="390"/>
                            <mxPoint x="810" y="274"/>
                        </Array>
                    </mxGeometry>
                </mxCell>
                <mxCell id="15" value="执行" style="rounded=0;whiteSpace=wrap;html=1;fontFamily=Courier New;fontSize=14;fontColor=#000000;strokeColor=#000000;strokeWidth=2;fillColor=#F0F0F0;" parent="1" vertex="1">
                    <mxGeometry x="583" y="369" width="120" height="42" as="geometry"/>
                </mxCell>
                <mxCell id="20" style="edgeStyle=orthogonalEdgeStyle;html=1;exitX=1;exitY=0.5;exitDx=0;exitDy=0;entryX=0.5;entryY=0;entryDx=0;entryDy=0;fontFamily=Courier New;fontSize=14;fontColor=#000000;strokeColor=#000000;" parent="1" source="16" target="12" edge="1">
                    <mxGeometry relative="1" as="geometry">
                        <Array as="points">
                            <mxPoint x="814" y="453"/>
                            <mxPoint x="814" y="517"/>
                            <mxPoint x="175" y="517"/>
                            <mxPoint x="175" y="104"/>
                            <mxPoint x="396" y="104"/>
                        </Array>
                    </mxGeometry>
                </mxCell>
                <mxCell id="16" value="订阅" style="rounded=0;whiteSpace=wrap;html=1;fontFamily=Courier New;fontSize=14;fontColor=#000000;strokeColor=#000000;strokeWidth=2;fillColor=#F0F0F0;" parent="1" vertex="1">
                    <mxGeometry x="583" y="432" width="120" height="42" as="geometry"/>
                </mxCell>
                <mxCell id="22" value="&lt;span style=&quot;text-align: left&quot;&gt;是直接更新还是通过Queue？&lt;/span&gt;" style="text;html=1;align=center;verticalAlign=middle;resizable=0;points=[];autosize=1;strokeColor=none;fillColor=none;fontSize=14;fontFamily=Courier New;fontColor=#000000;" parent="1" vertex="1">
                    <mxGeometry x="555" y="252" width="192" height="21" as="geometry"/>
                </mxCell>
                <mxCell id="27" style="edgeStyle=orthogonalEdgeStyle;html=1;exitX=1;exitY=0.5;exitDx=0;exitDy=0;entryX=0;entryY=0.5;entryDx=0;entryDy=0;fontFamily=Courier New;fontSize=14;fontColor=#000000;strokeColor=#000000;" parent="1" source="23" target="26" edge="1">
                    <mxGeometry relative="1" as="geometry"/>
                </mxCell>
                <mxCell id="23" value="" style="rounded=0;whiteSpace=wrap;html=1;fontFamily=Courier New;fontSize=14;strokeWidth=2;opacity=20;strokeColor=#000000;" parent="1" vertex="1">
                    <mxGeometry x="551" y="361" width="183" height="118" as="geometry"/>
                </mxCell>
                <mxCell id="24" value="1" style="text;html=1;align=center;verticalAlign=middle;resizable=0;points=[];autosize=1;strokeColor=none;fillColor=none;fontSize=14;fontFamily=Courier New;fontColor=#000000;" parent="1" vertex="1">
                    <mxGeometry x="527" y="366" width="18" height="21" as="geometry"/>
                </mxCell>
                <mxCell id="25" value="2" style="text;html=1;align=center;verticalAlign=middle;resizable=0;points=[];autosize=1;strokeColor=none;fillColor=none;fontSize=14;fontFamily=Courier New;fontColor=#000000;" parent="1" vertex="1">
                    <mxGeometry x="527" y="430" width="18" height="21" as="geometry"/>
                </mxCell>
                <mxCell id="26" value="Callback" style="rounded=0;whiteSpace=wrap;html=1;fontFamily=Courier New;fontSize=14;fontColor=#000000;strokeColor=#000000;strokeWidth=2;fillColor=#808080;gradientColor=none;" parent="1" vertex="1">
                    <mxGeometry x="914" y="390" width="120" height="60" as="geometry"/>
                </mxCell>
                <mxCell id="28" value="Republish" style="text;html=1;align=center;verticalAlign=middle;resizable=0;points=[];autosize=1;strokeColor=none;fillColor=none;fontSize=14;fontFamily=Courier New;fontColor=#000000;" parent="1" vertex="1">
                    <mxGeometry x="618.5" y="498" width="86" height="21" as="geometry"/>
                </mxCell>
                <mxCell id="29" value="&lt;h1&gt;关于mapper&lt;/h1&gt;&lt;div&gt;Q1. runtime 需要什么？&lt;/div&gt;&lt;div&gt;&amp;nbsp; &amp;nbsp; 按照现有的触发逻辑，runtime 需要 watchers + 执行 + 订阅 的缓存（ecache），event&amp;nbsp; &amp;nbsp; &amp;nbsp; 的主体是entity，所以我们对ecache与entity一对一的形式组织。&lt;/div&gt;&lt;div&gt;Q2. runtime 中的ecache从哪儿来，当mapper发生变更后会有哪些影响？&lt;/div&gt;&lt;div&gt;&amp;nbsp; &amp;nbsp; ecache由node设置，node监听etcd中mapper。 当mapper发生变更之后，node同步到&amp;nbsp; &amp;nbsp; &amp;nbsp; &amp;nbsp; &amp;nbsp; mapper的变更，node重新解析mapper，将生成的ecache更新到runtime。&lt;/div&gt;" style="text;html=1;strokeColor=none;fillColor=none;spacing=5;spacingTop=-20;whiteSpace=wrap;overflow=hidden;rounded=0;fontFamily=Courier New;fontSize=14;fontColor=#000000;" parent="1" vertex="1">
                    <mxGeometry x="297" y="547" width="661" height="295" as="geometry"/>
                </mxCell>
                <mxCell id="30" value="2" style="text;html=1;align=center;verticalAlign=middle;resizable=0;points=[];autosize=1;strokeColor=none;fillColor=none;fontSize=14;fontFamily=Courier New;fontColor=#000000;" parent="1" vertex="1">
                    <mxGeometry x="537" y="440" width="18" height="21" as="geometry"/>
                </mxCell>
                <mxCell id="32" value="3" style="text;html=1;align=center;verticalAlign=middle;resizable=0;points=[];autosize=1;strokeColor=none;fillColor=none;fontSize=14;fontFamily=Courier New;fontColor=#000000;" parent="1" vertex="1">
                    <mxGeometry x="810" y="396" width="18" height="21" as="geometry"/>
                </mxCell>
                <mxCell id="35" style="edgeStyle=none;html=1;exitX=0.5;exitY=1;exitDx=0;exitDy=0;entryX=0.5;entryY=0;entryDx=0;entryDy=0;fontFamily=Courier New;fontColor=#000000;strokeColor=#000000;" parent="1" source="33" target="34" edge="1">
                    <mxGeometry relative="1" as="geometry"/>
                </mxCell>
                <mxCell id="33" value="&lt;font color=&quot;#000000&quot; face=&quot;Courier New&quot;&gt;Mapper&lt;/font&gt;" style="rounded=0;whiteSpace=wrap;html=1;fillColor=#E6E6E6;strokeColor=#000000;" parent="1" vertex="1">
                    <mxGeometry x="695" y="1157" width="120" height="60" as="geometry"/>
                </mxCell>
                <mxCell id="41" style="edgeStyle=orthogonalEdgeStyle;html=1;exitX=0.5;exitY=1;exitDx=0;exitDy=0;fontFamily=Courier New;fontColor=#000000;strokeColor=#000000;" parent="1" source="34" target="37" edge="1">
                    <mxGeometry relative="1" as="geometry"/>
                </mxCell>
                <mxCell id="42" style="edgeStyle=orthogonalEdgeStyle;html=1;exitX=0.5;exitY=1;exitDx=0;exitDy=0;entryX=0.5;entryY=0;entryDx=0;entryDy=0;fontFamily=Courier New;fontColor=#000000;strokeColor=#000000;" parent="1" source="34" target="38" edge="1">
                    <mxGeometry relative="1" as="geometry"/>
                </mxCell>
                <mxCell id="43" style="edgeStyle=orthogonalEdgeStyle;html=1;exitX=0.5;exitY=1;exitDx=0;exitDy=0;fontFamily=Courier New;fontColor=#000000;strokeColor=#000000;" parent="1" source="34" target="39" edge="1">
                    <mxGeometry relative="1" as="geometry"/>
                </mxCell>
                <mxCell id="34" value="mapper&lt;br&gt;map&amp;lt;entityID, tentacles&amp;gt;" style="rounded=1;whiteSpace=wrap;html=1;fontFamily=Courier New;fontColor=#000000;strokeColor=#000000;fillColor=#E6E6E6;" parent="1" vertex="1">
                    <mxGeometry x="663.5" y="1300" width="183" height="60" as="geometry"/>
                </mxCell>
                <mxCell id="36" value="parse" style="text;html=1;align=center;verticalAlign=middle;resizable=0;points=[];autosize=1;strokeColor=none;fillColor=none;fontFamily=Courier New;fontColor=#000000;" parent="1" vertex="1">
                    <mxGeometry x="751" y="1255" width="46" height="18" as="geometry"/>
                </mxCell>
                <mxCell id="55" style="edgeStyle=orthogonalEdgeStyle;html=1;exitX=0.5;exitY=1;exitDx=0;exitDy=0;entryX=0.25;entryY=0;entryDx=0;entryDy=0;fontFamily=Courier New;fontColor=#000000;strokeColor=#000000;" parent="1" source="37" target="49" edge="1">
                    <mxGeometry relative="1" as="geometry"/>
                </mxCell>
                <mxCell id="37" value="MCache1" style="rounded=0;whiteSpace=wrap;html=1;fontFamily=Courier New;fontColor=#000000;strokeColor=#000000;fillColor=#E6E6E6;" parent="1" vertex="1">
                    <mxGeometry x="486" y="1483" width="120" height="60" as="geometry"/>
                </mxCell>
                <mxCell id="38" value="MCache2&lt;br&gt;pair&amp;lt;mapper,tentacles&amp;gt;" style="rounded=0;whiteSpace=wrap;html=1;fontFamily=Courier New;fontColor=#000000;strokeColor=#000000;fillColor=#E6E6E6;" parent="1" vertex="1">
                    <mxGeometry x="662.5" y="1483" width="186" height="60" as="geometry"/>
                </mxCell>
                <mxCell id="39" value="MCache3" style="rounded=0;whiteSpace=wrap;html=1;fontFamily=Courier New;fontColor=#000000;strokeColor=#000000;fillColor=#E6E6E6;" parent="1" vertex="1">
                    <mxGeometry x="875" y="1483" width="120" height="60" as="geometry"/>
                </mxCell>
                <mxCell id="46" style="edgeStyle=orthogonalEdgeStyle;html=1;exitX=0.55;exitY=0.95;exitDx=0;exitDy=0;exitPerimeter=0;entryX=0.5;entryY=0;entryDx=0;entryDy=0;fontFamily=Courier New;fontColor=#000000;strokeColor=#000000;" parent="1" source="45" target="33" edge="1">
                    <mxGeometry relative="1" as="geometry">
                        <Array as="points">
                            <mxPoint x="540" y="1103"/>
                            <mxPoint x="755" y="1103"/>
                        </Array>
                    </mxGeometry>
                </mxCell>
                <mxCell id="45" value="Etcd" style="ellipse;shape=cloud;whiteSpace=wrap;html=1;fontFamily=Courier New;fontColor=#000000;strokeColor=#000000;fillColor=#E6E6E6;" parent="1" vertex="1">
                    <mxGeometry x="474" y="998" width="120" height="80" as="geometry"/>
                </mxCell>
                <mxCell id="47" value="sync" style="text;html=1;align=center;verticalAlign=middle;resizable=0;points=[];autosize=1;strokeColor=none;fillColor=none;fontFamily=Courier New;fontColor=#000000;" parent="1" vertex="1">
                    <mxGeometry x="628" y="1083" width="39" height="18" as="geometry"/>
                </mxCell>
                <mxCell id="48" value="generate by entityID" style="text;html=1;align=center;verticalAlign=middle;resizable=0;points=[];autosize=1;strokeColor=none;fillColor=none;fontFamily=Courier New;fontColor=#000000;" parent="1" vertex="1">
                    <mxGeometry x="689" y="1378" width="154" height="18" as="geometry"/>
                </mxCell>
                <mxCell id="49" value="" style="rounded=0;whiteSpace=wrap;html=1;fontFamily=Courier New;fontColor=#000000;strokeColor=#000000;fillColor=#E6E6E6;" parent="1" vertex="1">
                    <mxGeometry x="356" y="1592" width="758" height="422" as="geometry"/>
                </mxCell>
                <mxCell id="51" value="" style="rounded=0;whiteSpace=wrap;html=1;fontFamily=Courier New;fontColor=#000000;strokeColor=#000000;fillColor=#E6E6E6;" parent="1" vertex="1">
                    <mxGeometry x="366" y="1602" width="758" height="422" as="geometry"/>
                </mxCell>
                <mxCell id="52" value="" style="rounded=0;whiteSpace=wrap;html=1;fontFamily=Courier New;fontColor=#000000;strokeColor=#000000;fillColor=#E6E6E6;" parent="1" vertex="1">
                    <mxGeometry x="376" y="1612" width="758" height="422" as="geometry"/>
                </mxCell>
                <mxCell id="56" style="edgeStyle=orthogonalEdgeStyle;html=1;exitX=0.5;exitY=1;exitDx=0;exitDy=0;fontFamily=Courier New;fontColor=#000000;strokeColor=#000000;entryX=0.5;entryY=0;entryDx=0;entryDy=0;" parent="1" source="38" target="52" edge="1">
                    <mxGeometry relative="1" as="geometry"/>
                </mxCell>
                <mxCell id="57" style="edgeStyle=orthogonalEdgeStyle;html=1;exitX=0.5;exitY=1;exitDx=0;exitDy=0;entryX=0.75;entryY=0;entryDx=0;entryDy=0;fontFamily=Courier New;fontColor=#000000;strokeColor=#000000;" parent="1" source="39" target="51" edge="1">
                    <mxGeometry relative="1" as="geometry"/>
                </mxCell>
                <mxCell id="58" value="&lt;font style=&quot;font-size: 14px&quot;&gt;Runtime&lt;/font&gt;" style="text;html=1;align=center;verticalAlign=middle;resizable=0;points=[];autosize=1;strokeColor=none;fillColor=none;fontFamily=Courier New;fontColor=#000000;" parent="1" vertex="1">
                    <mxGeometry x="1065" y="1612" width="69" height="19" as="geometry"/>
                </mxCell>
                <mxCell id="79" style="edgeStyle=orthogonalEdgeStyle;html=1;exitX=0.5;exitY=1;exitDx=0;exitDy=0;entryX=0.5;entryY=0;entryDx=0;entryDy=0;fontFamily=Courier New;fontColor=#000000;strokeColor=#000000;" parent="1" source="76" target="77" edge="1">
                    <mxGeometry relative="1" as="geometry"/>
                </mxCell>
                <mxCell id="80" style="edgeStyle=orthogonalEdgeStyle;html=1;exitX=0.5;exitY=1;exitDx=0;exitDy=0;fontFamily=Courier New;fontColor=#000000;strokeColor=#000000;" parent="1" source="76" target="78" edge="1">
                    <mxGeometry relative="1" as="geometry"/>
                </mxCell>
                <mxCell id="82" style="edgeStyle=orthogonalEdgeStyle;html=1;exitX=0.5;exitY=1;exitDx=0;exitDy=0;entryX=0.5;entryY=0;entryDx=0;entryDy=0;fontFamily=Courier New;fontColor=#000000;strokeColor=#000000;" parent="1" source="76" target="81" edge="1">
                    <mxGeometry relative="1" as="geometry"/>
                </mxCell>
                <mxCell id="76" value="MCache" style="rounded=0;whiteSpace=wrap;html=1;fontFamily=Courier New;fontColor=#000000;strokeColor=#000000;fillColor=#F0F0F0;" parent="1" vertex="1">
                    <mxGeometry x="925" y="1632" width="70" height="35" as="geometry"/>
                </mxCell>
                <mxCell id="87" style="edgeStyle=orthogonalEdgeStyle;html=1;exitX=0.5;exitY=1;exitDx=0;exitDy=0;fontFamily=Courier New;fontColor=#000000;strokeColor=#000000;" parent="1" source="77" target="83" edge="1">
                    <mxGeometry relative="1" as="geometry"/>
                </mxCell>
                <mxCell id="88" style="edgeStyle=orthogonalEdgeStyle;html=1;exitX=0.5;exitY=1;exitDx=0;exitDy=0;fontFamily=Courier New;fontColor=#000000;strokeColor=#000000;" parent="1" source="77" target="85" edge="1">
                    <mxGeometry relative="1" as="geometry"/>
                </mxCell>
                <mxCell id="89" style="edgeStyle=orthogonalEdgeStyle;html=1;exitX=0.5;exitY=1;exitDx=0;exitDy=0;entryX=0.5;entryY=0;entryDx=0;entryDy=0;fontFamily=Courier New;fontColor=#000000;strokeColor=#000000;" parent="1" source="77" target="84" edge="1">
                    <mxGeometry relative="1" as="geometry"/>
                </mxCell>
                <mxCell id="77" value="tentacle" style="rounded=0;whiteSpace=wrap;html=1;fontFamily=Courier New;fontColor=#000000;strokeColor=#000000;fillColor=#F0F0F0;" parent="1" vertex="1">
                    <mxGeometry x="825" y="1717" width="72" height="36" as="geometry"/>
                </mxCell>
                <mxCell id="78" value="tentacle" style="rounded=0;whiteSpace=wrap;html=1;fontFamily=Courier New;fontColor=#000000;strokeColor=#000000;fillColor=#F0F0F0;" parent="1" vertex="1">
                    <mxGeometry x="924" y="1717" width="72" height="36" as="geometry"/>
                </mxCell>
                <mxCell id="81" value="...." style="rounded=0;whiteSpace=wrap;html=1;fontFamily=Courier New;fontColor=#000000;strokeColor=#000000;fillColor=#F0F0F0;" parent="1" vertex="1">
                    <mxGeometry x="1023" y="1717" width="72" height="36" as="geometry"/>
                </mxCell>
                <mxCell id="83" value="path1" style="rounded=0;whiteSpace=wrap;html=1;fontFamily=Courier New;fontColor=#000000;strokeColor=#000000;fillColor=#F0F0F0;" parent="1" vertex="1">
                    <mxGeometry x="766" y="1795" width="49" height="24" as="geometry"/>
                </mxCell>
                <mxCell id="84" value="...." style="rounded=0;whiteSpace=wrap;html=1;fontFamily=Courier New;fontColor=#000000;strokeColor=#000000;fillColor=#F0F0F0;" parent="1" vertex="1">
                    <mxGeometry x="909" y="1794" width="49" height="24" as="geometry"/>
                </mxCell>
                <mxCell id="85" value="path2" style="rounded=0;whiteSpace=wrap;html=1;fontFamily=Courier New;fontColor=#000000;strokeColor=#000000;fillColor=#F0F0F0;" parent="1" vertex="1">
                    <mxGeometry x="836.5" y="1794" width="49" height="24" as="geometry"/>
                </mxCell>
                <mxCell id="92" value="mount" style="text;html=1;align=center;verticalAlign=middle;resizable=0;points=[];autosize=1;strokeColor=none;fillColor=none;fontFamily=Courier New;fontColor=#000000;" parent="1" vertex="1">
                    <mxGeometry x="646" y="1830" width="46" height="18" as="geometry"/>
                </mxCell>
                <mxCell id="94" value="&lt;font style=&quot;font-size: 14px&quot;&gt;Node&lt;/font&gt;" style="text;html=1;align=center;verticalAlign=middle;resizable=0;points=[];autosize=1;strokeColor=none;fillColor=none;fontFamily=Courier New;fontColor=#000000;" parent="1" vertex="1">
                    <mxGeometry x="1044" y="986" width="44" height="19" as="geometry"/>
                </mxCell>
                <mxCell id="95" value="" style="rounded=0;whiteSpace=wrap;html=1;fontFamily=Courier New;fontSize=14;fontColor=#000000;strokeColor=#000000;fillColor=#D4D4D4;" parent="1" vertex="1">
                    <mxGeometry x="390" y="1628" width="211" height="233" as="geometry"/>
                </mxCell>
                <mxCell id="68" style="edgeStyle=orthogonalEdgeStyle;html=1;exitX=0.5;exitY=1;exitDx=0;exitDy=0;entryX=0.5;entryY=0;entryDx=0;entryDy=0;fontFamily=Courier New;fontColor=#000000;strokeColor=#000000;" parent="1" source="59" target="61" edge="1">
                    <mxGeometry relative="1" as="geometry"/>
                </mxCell>
                <mxCell id="69" style="edgeStyle=orthogonalEdgeStyle;html=1;exitX=0.5;exitY=1;exitDx=0;exitDy=0;entryX=0.5;entryY=0;entryDx=0;entryDy=0;fontFamily=Courier New;fontColor=#000000;strokeColor=#000000;" parent="1" source="59" target="60" edge="1">
                    <mxGeometry relative="1" as="geometry"/>
                </mxCell>
                <mxCell id="59" value="" style="ellipse;whiteSpace=wrap;html=1;aspect=fixed;fontFamily=Courier New;fontColor=#000000;strokeColor=#000000;fillColor=#E6E6E6;" parent="1" vertex="1">
                    <mxGeometry x="477" y="1643" width="24" height="24" as="geometry"/>
                </mxCell>
                <mxCell id="70" style="edgeStyle=orthogonalEdgeStyle;html=1;exitX=0.5;exitY=1;exitDx=0;exitDy=0;fontFamily=Courier New;fontColor=#000000;strokeColor=#000000;" parent="1" source="60" target="63" edge="1">
                    <mxGeometry relative="1" as="geometry"/>
                </mxCell>
                <mxCell id="71" style="edgeStyle=orthogonalEdgeStyle;html=1;exitX=0.5;exitY=1;exitDx=0;exitDy=0;entryX=0.5;entryY=0;entryDx=0;entryDy=0;fontFamily=Courier New;fontColor=#000000;strokeColor=#000000;" parent="1" source="60" target="62" edge="1">
                    <mxGeometry relative="1" as="geometry"/>
                </mxCell>
                <mxCell id="60" value="" style="ellipse;whiteSpace=wrap;html=1;aspect=fixed;fontFamily=Courier New;fontColor=#000000;strokeColor=#000000;fillColor=#E6E6E6;" parent="1" vertex="1">
                    <mxGeometry x="442" y="1698" width="24" height="24" as="geometry"/>
                </mxCell>
                <mxCell id="73" style="edgeStyle=orthogonalEdgeStyle;html=1;exitX=0.5;exitY=1;exitDx=0;exitDy=0;entryX=0.5;entryY=0;entryDx=0;entryDy=0;fontFamily=Courier New;fontColor=#000000;strokeColor=#000000;" parent="1" source="61" target="64" edge="1">
                    <mxGeometry relative="1" as="geometry"/>
                </mxCell>
                <mxCell id="61" value="" style="ellipse;whiteSpace=wrap;html=1;aspect=fixed;fontFamily=Courier New;fontColor=#000000;strokeColor=#000000;fillColor=#E6E6E6;" parent="1" vertex="1">
                    <mxGeometry x="507" y="1698" width="24" height="24" as="geometry"/>
                </mxCell>
                <mxCell id="74" style="edgeStyle=orthogonalEdgeStyle;html=1;exitX=0.5;exitY=1;exitDx=0;exitDy=0;entryX=0.5;entryY=0;entryDx=0;entryDy=0;fontFamily=Courier New;fontColor=#000000;strokeColor=#000000;" parent="1" source="62" target="65" edge="1">
                    <mxGeometry relative="1" as="geometry"/>
                </mxCell>
                <mxCell id="75" style="edgeStyle=orthogonalEdgeStyle;html=1;exitX=0.5;exitY=1;exitDx=0;exitDy=0;entryX=0.5;entryY=0;entryDx=0;entryDy=0;fontFamily=Courier New;fontColor=#000000;strokeColor=#000000;" parent="1" source="62" target="66" edge="1">
                    <mxGeometry relative="1" as="geometry"/>
                </mxCell>
                <mxCell id="62" value="" style="ellipse;whiteSpace=wrap;html=1;aspect=fixed;fontFamily=Courier New;fontColor=#000000;strokeColor=#000000;fillColor=#E6E6E6;" parent="1" vertex="1">
                    <mxGeometry x="471" y="1756" width="24" height="24" as="geometry"/>
                </mxCell>
                <mxCell id="63" value="" style="ellipse;whiteSpace=wrap;html=1;aspect=fixed;fontFamily=Courier New;fontColor=#000000;strokeColor=#000000;fillColor=#E6E6E6;" parent="1" vertex="1">
                    <mxGeometry x="418" y="1756" width="24" height="24" as="geometry"/>
                </mxCell>
                <mxCell id="64" value="" style="ellipse;whiteSpace=wrap;html=1;aspect=fixed;fontFamily=Courier New;fontColor=#000000;strokeColor=#000000;fillColor=#E6E6E6;" parent="1" vertex="1">
                    <mxGeometry x="537" y="1756" width="24" height="24" as="geometry"/>
                </mxCell>
                <mxCell id="65" value="" style="ellipse;whiteSpace=wrap;html=1;aspect=fixed;fontFamily=Courier New;fontColor=#000000;strokeColor=#000000;fillColor=#E6E6E6;" parent="1" vertex="1">
                    <mxGeometry x="434" y="1814" width="24" height="24" as="geometry"/>
                </mxCell>
                <mxCell id="66" value="" style="ellipse;whiteSpace=wrap;html=1;aspect=fixed;fontFamily=Courier New;fontColor=#000000;strokeColor=#000000;fillColor=#E6E6E6;" parent="1" vertex="1">
                    <mxGeometry x="507" y="1814" width="24" height="24" as="geometry"/>
                </mxCell>
                <mxCell id="90" style="edgeStyle=orthogonalEdgeStyle;html=1;exitX=0.5;exitY=1;exitDx=0;exitDy=0;entryX=0.5;entryY=1;entryDx=0;entryDy=0;fontFamily=Courier New;fontColor=#000000;strokeColor=#000000;" parent="1" source="83" target="64" edge="1">
                    <mxGeometry relative="1" as="geometry">
                        <Array as="points">
                            <mxPoint x="791" y="1847"/>
                            <mxPoint x="549" y="1847"/>
                        </Array>
                    </mxGeometry>
                </mxCell>
                <mxCell id="91" style="edgeStyle=orthogonalEdgeStyle;html=1;exitX=0.5;exitY=1;exitDx=0;exitDy=0;entryX=0.5;entryY=1;entryDx=0;entryDy=0;fontFamily=Courier New;fontColor=#000000;strokeColor=#000000;" parent="1" source="85" target="65" edge="1">
                    <mxGeometry relative="1" as="geometry">
                        <Array as="points">
                            <mxPoint x="861" y="1877"/>
                            <mxPoint x="446" y="1877"/>
                        </Array>
                    </mxGeometry>
                </mxCell>
                <mxCell id="96" value="&lt;font style=&quot;font-size: 12px&quot;&gt;Path-Tree&lt;/font&gt;" style="text;html=1;align=center;verticalAlign=middle;resizable=0;points=[];autosize=1;strokeColor=none;fillColor=none;fontSize=14;fontFamily=Courier New;fontColor=#000000;" parent="1" vertex="1">
                    <mxGeometry x="528" y="1627" width="75" height="22" as="geometry"/>
                </mxCell>
                <mxCell id="101" style="edgeStyle=orthogonalEdgeStyle;html=1;exitX=0.5;exitY=1;exitDx=0;exitDy=0;entryX=0.5;entryY=0;entryDx=0;entryDy=0;fontFamily=Courier New;fontColor=#000000;strokeColor=#000000;" parent="1" source="97" target="99" edge="1">
                    <mxGeometry relative="1" as="geometry">
                        <Array as="points">
                            <mxPoint x="1339" y="2310"/>
                            <mxPoint x="1391" y="2310"/>
                        </Array>
                    </mxGeometry>
                </mxCell>
                <mxCell id="97" value="&lt;font face=&quot;Courier New&quot; color=&quot;#000000&quot;&gt;Entity Event&lt;/font&gt;" style="rounded=0;whiteSpace=wrap;html=1;fillColor=#E0E0E0;strokeColor=#000000;" parent="1" vertex="1">
                    <mxGeometry x="1290" y="2234" width="99" height="41" as="geometry"/>
                </mxCell>
                <mxCell id="128" style="edgeStyle=orthogonalEdgeStyle;html=1;exitX=0.5;exitY=1;exitDx=0;exitDy=0;entryX=0.5;entryY=0;entryDx=0;entryDy=0;fontFamily=Courier New;fontColor=#000000;strokeColor=#000000;" parent="1" source="98" target="99" edge="1">
                    <mxGeometry relative="1" as="geometry"/>
                </mxCell>
                <mxCell id="98" value="&lt;font face=&quot;Courier New&quot; color=&quot;#000000&quot;&gt;Cache Event&lt;/font&gt;" style="rounded=0;whiteSpace=wrap;html=1;fillColor=#CCCCCC;strokeColor=#000000;" parent="1" vertex="1">
                    <mxGeometry x="1392" y="2234" width="99" height="41" as="geometry"/>
                </mxCell>
                <mxCell id="105" style="edgeStyle=orthogonalEdgeStyle;html=1;exitX=0.5;exitY=1;exitDx=0;exitDy=0;entryX=0.5;entryY=0;entryDx=0;entryDy=0;fontFamily=Courier New;fontColor=#000000;strokeColor=#000000;" parent="1" source="99" target="104" edge="1">
                    <mxGeometry relative="1" as="geometry"/>
                </mxCell>
                <mxCell id="99" value="&lt;font face=&quot;Courier New&quot; color=&quot;#000000&quot;&gt;Feed&lt;/font&gt;" style="rounded=0;whiteSpace=wrap;html=1;fillColor=#CCE5FF;strokeColor=#000000;" parent="1" vertex="1">
                    <mxGeometry x="1341" y="2349.5" width="99" height="41" as="geometry"/>
                </mxCell>
                <mxCell id="103" value="convert" style="text;html=1;align=center;verticalAlign=middle;resizable=0;points=[];autosize=1;strokeColor=none;fillColor=none;fontFamily=Courier New;fontColor=#000000;" parent="1" vertex="1">
                    <mxGeometry x="1362.5" y="2292" width="60" height="18" as="geometry"/>
                </mxCell>
                <mxCell id="109" style="edgeStyle=orthogonalEdgeStyle;html=1;exitX=1;exitY=0.5;exitDx=0;exitDy=0;entryX=0;entryY=0.5;entryDx=0;entryDy=0;fontFamily=Courier New;fontColor=#000000;strokeColor=#000000;startArrow=none;" parent="1" source="110" target="106" edge="1">
                    <mxGeometry relative="1" as="geometry"/>
                </mxCell>
                <mxCell id="112" style="edgeStyle=orthogonalEdgeStyle;html=1;exitX=1;exitY=0.5;exitDx=0;exitDy=0;fontFamily=Courier New;fontColor=#000000;strokeColor=#000000;" parent="1" source="104" target="110" edge="1">
                    <mxGeometry relative="1" as="geometry"/>
                </mxCell>
                <mxCell id="104" value="PreUpdate" style="rhombus;whiteSpace=wrap;html=1;fontFamily=Courier New;fontColor=#000000;strokeColor=#000000;fillColor=#FFCCCC;" parent="1" vertex="1">
                    <mxGeometry x="1331.5" y="2465" width="118" height="71" as="geometry"/>
                </mxCell>
                <mxCell id="114" style="edgeStyle=orthogonalEdgeStyle;html=1;exitX=0.5;exitY=1;exitDx=0;exitDy=0;entryX=0.5;entryY=0;entryDx=0;entryDy=0;fontFamily=Courier New;fontColor=#000000;strokeColor=#000000;" parent="1" source="106" target="113" edge="1">
                    <mxGeometry relative="1" as="geometry"/>
                </mxCell>
                <mxCell id="106" value="" style="rounded=0;whiteSpace=wrap;html=1;fontFamily=Courier New;fontColor=#000000;strokeColor=#000000;fillColor=#FFFFFF;" parent="1" vertex="1">
                    <mxGeometry x="1681" y="2463.5" width="170" height="74" as="geometry"/>
                </mxCell>
                <mxCell id="107" value="&lt;font face=&quot;Courier New&quot; color=&quot;#000000&quot;&gt;Entity&lt;/font&gt;" style="rounded=0;whiteSpace=wrap;html=1;fillColor=#E0E0E0;strokeColor=#000000;" parent="1" vertex="1">
                    <mxGeometry x="1697" y="2480" width="65" height="41" as="geometry"/>
                </mxCell>
                <mxCell id="108" value="&lt;font face=&quot;Courier New&quot; color=&quot;#000000&quot;&gt;Cache&lt;/font&gt;" style="rounded=0;whiteSpace=wrap;html=1;fillColor=#CCCCCC;strokeColor=#000000;" parent="1" vertex="1">
                    <mxGeometry x="1765" y="2480" width="72" height="41" as="geometry"/>
                </mxCell>
                <mxCell id="110" value="&lt;span style=&quot;color: rgb(0 , 0 , 0) ; font-family: &amp;#34;courier new&amp;#34;&quot;&gt;Feed&lt;/span&gt;" style="rounded=0;whiteSpace=wrap;html=1;fillColor=#CCE5FF;strokeColor=#000000;" parent="1" vertex="1">
                    <mxGeometry x="1506" y="2480" width="99" height="41" as="geometry"/>
                </mxCell>
                <mxCell id="116" style="edgeStyle=orthogonalEdgeStyle;html=1;exitX=0.5;exitY=1;exitDx=0;exitDy=0;entryX=0.5;entryY=0;entryDx=0;entryDy=0;fontFamily=Courier New;fontColor=#000000;strokeColor=#000000;" parent="1" source="113" target="115" edge="1">
                    <mxGeometry relative="1" as="geometry"/>
                </mxCell>
                <mxCell id="113" value="&lt;span style=&quot;color: rgb(0 , 0 , 0) ; font-family: &amp;#34;courier new&amp;#34;&quot;&gt;Feed&lt;/span&gt;" style="rounded=0;whiteSpace=wrap;html=1;fillColor=#CCE5FF;strokeColor=#000000;" parent="1" vertex="1">
                    <mxGeometry x="1716.5" y="2608" width="99" height="41" as="geometry"/>
                </mxCell>
                <mxCell id="121" style="edgeStyle=orthogonalEdgeStyle;html=1;exitX=0;exitY=0.5;exitDx=0;exitDy=0;entryX=1;entryY=0.5;entryDx=0;entryDy=0;fontFamily=Courier New;fontColor=#000000;strokeColor=#000000;" parent="1" source="115" target="118" edge="1">
                    <mxGeometry relative="1" as="geometry">
                        <Array as="points">
                            <mxPoint x="1633" y="2756"/>
                            <mxPoint x="1633" y="2696"/>
                        </Array>
                    </mxGeometry>
                </mxCell>
                <mxCell id="122" style="edgeStyle=orthogonalEdgeStyle;html=1;exitX=0;exitY=0.5;exitDx=0;exitDy=0;fontFamily=Courier New;fontColor=#000000;strokeColor=#000000;" parent="1" source="115" target="119" edge="1">
                    <mxGeometry relative="1" as="geometry"/>
                </mxCell>
                <mxCell id="123" style="edgeStyle=orthogonalEdgeStyle;html=1;exitX=0;exitY=0.5;exitDx=0;exitDy=0;entryX=1;entryY=0.5;entryDx=0;entryDy=0;fontFamily=Courier New;fontColor=#000000;strokeColor=#000000;" parent="1" source="115" target="120" edge="1">
                    <mxGeometry relative="1" as="geometry">
                        <Array as="points">
                            <mxPoint x="1636" y="2756"/>
                            <mxPoint x="1636" y="2814"/>
                        </Array>
                    </mxGeometry>
                </mxCell>
                <mxCell id="115" value="AfterUpdate" style="rhombus;whiteSpace=wrap;html=1;fontFamily=Courier New;fontColor=#000000;strokeColor=#000000;fillColor=#FFCCCC;" parent="1" vertex="1">
                    <mxGeometry x="1707" y="2720" width="118" height="71" as="geometry"/>
                </mxCell>
                <mxCell id="124" style="edgeStyle=orthogonalEdgeStyle;html=1;exitX=0;exitY=0.5;exitDx=0;exitDy=0;entryX=0;entryY=0.5;entryDx=0;entryDy=0;fontFamily=Courier New;fontColor=#000000;strokeColor=#000000;" parent="1" source="118" target="104" edge="1">
                    <mxGeometry relative="1" as="geometry">
                        <Array as="points">
                            <mxPoint x="1189" y="2696"/>
                            <mxPoint x="1189" y="2500"/>
                        </Array>
                    </mxGeometry>
                </mxCell>
                <mxCell id="118" value="&lt;span style=&quot;color: rgb(0 , 0 , 0) ; font-family: &amp;#34;courier new&amp;#34;&quot;&gt;Feed&lt;/span&gt;" style="rounded=0;whiteSpace=wrap;html=1;fillColor=#CCE5FF;strokeColor=#000000;" parent="1" vertex="1">
                    <mxGeometry x="1506" y="2676" width="99" height="41" as="geometry"/>
                </mxCell>
                <mxCell id="126" style="edgeStyle=orthogonalEdgeStyle;html=1;exitX=0;exitY=0.5;exitDx=0;exitDy=0;entryX=0;entryY=0.5;entryDx=0;entryDy=0;fontFamily=Courier New;fontColor=#000000;strokeColor=#000000;" parent="1" source="119" target="104" edge="1">
                    <mxGeometry relative="1" as="geometry">
                        <Array as="points">
                            <mxPoint x="1179" y="2756"/>
                            <mxPoint x="1179" y="2500"/>
                        </Array>
                    </mxGeometry>
                </mxCell>
                <mxCell id="119" value="&lt;span style=&quot;color: rgb(0 , 0 , 0) ; font-family: &amp;#34;courier new&amp;#34;&quot;&gt;Feed&lt;/span&gt;" style="rounded=0;whiteSpace=wrap;html=1;fillColor=#CCE5FF;strokeColor=#000000;" parent="1" vertex="1">
                    <mxGeometry x="1506" y="2735" width="99" height="41" as="geometry"/>
                </mxCell>
                <mxCell id="127" style="edgeStyle=orthogonalEdgeStyle;html=1;exitX=0;exitY=0.5;exitDx=0;exitDy=0;entryX=0;entryY=0.5;entryDx=0;entryDy=0;fontFamily=Courier New;fontColor=#000000;strokeColor=#000000;" parent="1" source="120" target="104" edge="1">
                    <mxGeometry relative="1" as="geometry">
                        <Array as="points">
                            <mxPoint x="1169" y="2814"/>
                            <mxPoint x="1169" y="2500"/>
                        </Array>
                    </mxGeometry>
                </mxCell>
                <mxCell id="120" value="&lt;span style=&quot;color: rgb(0 , 0 , 0) ; font-family: &amp;#34;courier new&amp;#34;&quot;&gt;Feed&lt;/span&gt;" style="rounded=0;whiteSpace=wrap;html=1;fillColor=#CCE5FF;strokeColor=#000000;" parent="1" vertex="1">
                    <mxGeometry x="1506" y="2794" width="99" height="41" as="geometry"/>
                </mxCell>
                <mxCell id="129" value="Update" style="text;html=1;align=center;verticalAlign=middle;resizable=0;points=[];autosize=1;strokeColor=none;fillColor=none;fontFamily=Courier New;fontColor=#000000;" parent="1" vertex="1">
                    <mxGeometry x="1739.5" y="2463" width="53" height="18" as="geometry"/>
                </mxCell>
                <mxCell id="132" value="&lt;font style=&quot;font-size: 14px&quot;&gt;State&lt;/font&gt;" style="text;html=1;align=center;verticalAlign=middle;resizable=0;points=[];autosize=1;strokeColor=none;fillColor=none;fontFamily=Courier New;fontColor=#000000;" parent="1" vertex="1">
                    <mxGeometry x="1876" y="2208" width="52" height="19" as="geometry"/>
                </mxCell>
                <mxCell id="136" style="edgeStyle=orthogonalEdgeStyle;html=1;exitX=0.5;exitY=1;exitDx=0;exitDy=0;entryX=0.5;entryY=0;entryDx=0;entryDy=0;fontFamily=Courier New;fontSize=14;fontColor=#000000;strokeColor=#000000;" parent="1" source="133" target="134" edge="1">
                    <mxGeometry relative="1" as="geometry"/>
                </mxCell>
                <mxCell id="137" style="edgeStyle=orthogonalEdgeStyle;html=1;exitX=0.5;exitY=1;exitDx=0;exitDy=0;fontFamily=Courier New;fontSize=14;fontColor=#000000;strokeColor=#000000;" parent="1" source="133" target="135" edge="1">
                    <mxGeometry relative="1" as="geometry"/>
                </mxCell>
                <mxCell id="133" value="Execer" style="rounded=0;whiteSpace=wrap;html=1;fontFamily=Courier New;fontSize=14;fontColor=#000000;strokeColor=#000000;fillColor=#F0F0F0;" parent="1" vertex="1">
                    <mxGeometry x="1438" y="3024" width="120" height="60" as="geometry"/>
                </mxCell>
                <mxCell id="134" value="Execer" style="rounded=0;whiteSpace=wrap;html=1;fontFamily=Courier New;fontSize=14;fontColor=#000000;strokeColor=#000000;fillColor=#F0F0F0;" parent="1" vertex="1">
                    <mxGeometry x="1333" y="3170" width="120" height="60" as="geometry"/>
                </mxCell>
                <mxCell id="135" value="Execer" style="rounded=0;whiteSpace=wrap;html=1;fontFamily=Courier New;fontSize=14;fontColor=#000000;strokeColor=#000000;fillColor=#F0F0F0;" parent="1" vertex="1">
                    <mxGeometry x="1551" y="3170" width="120" height="60" as="geometry"/>
                </mxCell>
                <mxCell id="140" style="edgeStyle=orthogonalEdgeStyle;html=1;exitX=1;exitY=0.5;exitDx=0;exitDy=0;entryX=0;entryY=0.5;entryDx=0;entryDy=0;fontFamily=Courier New;fontColor=#000000;strokeColor=#000000;startArrow=none;" parent="1" source="147" target="144" edge="1">
                    <mxGeometry relative="1" as="geometry"/>
                </mxCell>
                <mxCell id="141" style="edgeStyle=orthogonalEdgeStyle;html=1;exitX=1;exitY=0.5;exitDx=0;exitDy=0;fontFamily=Courier New;fontColor=#000000;strokeColor=#000000;" parent="1" source="142" target="147" edge="1">
                    <mxGeometry relative="1" as="geometry"/>
                </mxCell>
                <mxCell id="142" value="PreUpdate" style="rhombus;whiteSpace=wrap;html=1;fontFamily=Courier New;fontColor=#000000;strokeColor=#000000;fillColor=#FFCCCC;" parent="1" vertex="1">
                    <mxGeometry x="2870.44" y="2562" width="118" height="71" as="geometry"/>
                </mxCell>
                <mxCell id="143" style="edgeStyle=orthogonalEdgeStyle;html=1;exitX=0.5;exitY=1;exitDx=0;exitDy=0;entryX=0.5;entryY=0;entryDx=0;entryDy=0;fontFamily=Courier New;fontColor=#000000;strokeColor=#000000;" parent="1" source="144" target="149" edge="1">
                    <mxGeometry relative="1" as="geometry"/>
                </mxCell>
                <mxCell id="144" value="" style="rounded=0;whiteSpace=wrap;html=1;fontFamily=Courier New;fontColor=#000000;strokeColor=#000000;fillColor=#FFFFFF;" parent="1" vertex="1">
                    <mxGeometry x="3219.94" y="2560.5" width="170" height="74" as="geometry"/>
                </mxCell>
                <mxCell id="145" value="&lt;font face=&quot;Courier New&quot; color=&quot;#000000&quot;&gt;Entity&lt;/font&gt;" style="rounded=0;whiteSpace=wrap;html=1;fillColor=#E0E0E0;strokeColor=#000000;" parent="1" vertex="1">
                    <mxGeometry x="3235.94" y="2577" width="65" height="41" as="geometry"/>
                </mxCell>
                <mxCell id="146" value="&lt;font face=&quot;Courier New&quot; color=&quot;#000000&quot;&gt;Cache&lt;/font&gt;" style="rounded=0;whiteSpace=wrap;html=1;fillColor=#CCCCCC;strokeColor=#000000;" parent="1" vertex="1">
                    <mxGeometry x="3303.94" y="2577" width="72" height="41" as="geometry"/>
                </mxCell>
                <mxCell id="147" value="&lt;span style=&quot;color: rgb(0 , 0 , 0) ; font-family: &amp;#34;courier new&amp;#34;&quot;&gt;Feed&lt;/span&gt;" style="rounded=0;whiteSpace=wrap;html=1;fillColor=#CCE5FF;strokeColor=#000000;" parent="1" vertex="1">
                    <mxGeometry x="3044.94" y="2577" width="99" height="41" as="geometry"/>
                </mxCell>
                <mxCell id="148" style="edgeStyle=orthogonalEdgeStyle;html=1;exitX=0.5;exitY=1;exitDx=0;exitDy=0;entryX=0.5;entryY=0;entryDx=0;entryDy=0;fontFamily=Courier New;fontColor=#000000;strokeColor=#000000;" parent="1" source="149" target="153" edge="1">
                    <mxGeometry relative="1" as="geometry"/>
                </mxCell>
                <mxCell id="149" value="&lt;span style=&quot;color: rgb(0 , 0 , 0) ; font-family: &amp;#34;courier new&amp;#34;&quot;&gt;Feed&lt;/span&gt;" style="rounded=0;whiteSpace=wrap;html=1;fillColor=#CCE5FF;strokeColor=#000000;" parent="1" vertex="1">
                    <mxGeometry x="3255.44" y="2705" width="99" height="41" as="geometry"/>
                </mxCell>
                <mxCell id="190" style="edgeStyle=orthogonalEdgeStyle;html=1;exitX=0.5;exitY=1;exitDx=0;exitDy=0;entryX=0.5;entryY=0;entryDx=0;entryDy=0;fontFamily=Courier New;fontSize=14;fontColor=#000000;strokeColor=#000000;" parent="1" source="153" target="187" edge="1">
                    <mxGeometry relative="1" as="geometry"/>
                </mxCell>
                <mxCell id="191" style="edgeStyle=orthogonalEdgeStyle;html=1;exitX=0.5;exitY=1;exitDx=0;exitDy=0;entryX=0.5;entryY=0;entryDx=0;entryDy=0;fontFamily=Courier New;fontSize=14;fontColor=#000000;strokeColor=#000000;" parent="1" source="153" target="186" edge="1">
                    <mxGeometry relative="1" as="geometry"/>
                </mxCell>
                <mxCell id="192" style="edgeStyle=orthogonalEdgeStyle;html=1;exitX=0.5;exitY=1;exitDx=0;exitDy=0;entryX=0.5;entryY=0;entryDx=0;entryDy=0;fontFamily=Courier New;fontSize=14;fontColor=#000000;strokeColor=#000000;" parent="1" source="153" target="188" edge="1">
                    <mxGeometry relative="1" as="geometry"/>
                </mxCell>
                <mxCell id="153" value="AfterUpdate" style="rhombus;whiteSpace=wrap;html=1;fontFamily=Courier New;fontColor=#000000;strokeColor=#000000;fillColor=#FFCCCC;" parent="1" vertex="1">
                    <mxGeometry x="3245.94" y="2817" width="118" height="71" as="geometry"/>
                </mxCell>
                <mxCell id="160" value="Update" style="text;html=1;align=center;verticalAlign=middle;resizable=0;points=[];autosize=1;strokeColor=none;fillColor=none;fontFamily=Courier New;fontColor=#000000;" parent="1" vertex="1">
                    <mxGeometry x="3278.44" y="2560" width="53" height="18" as="geometry"/>
                </mxCell>
                <mxCell id="183" style="edgeStyle=orthogonalEdgeStyle;html=1;exitX=0.5;exitY=1;exitDx=0;exitDy=0;entryX=0.5;entryY=0;entryDx=0;entryDy=0;fontFamily=Courier New;fontSize=14;fontColor=#000000;strokeColor=#000000;" parent="1" source="182" target="142" edge="1">
                    <mxGeometry relative="1" as="geometry"/>
                </mxCell>
                <mxCell id="182" value="&lt;span style=&quot;color: rgb(0 , 0 , 0) ; font-family: &amp;#34;courier new&amp;#34;&quot;&gt;Feed&lt;/span&gt;" style="rounded=0;whiteSpace=wrap;html=1;fillColor=#CCE5FF;strokeColor=#000000;" parent="1" vertex="1">
                    <mxGeometry x="2879.94" y="2447" width="99" height="41" as="geometry"/>
                </mxCell>
                <mxCell id="185" value="Execer" style="text;html=1;align=center;verticalAlign=middle;resizable=0;points=[];autosize=1;strokeColor=none;fillColor=none;fontSize=14;fontFamily=Courier New;fontColor=#000000;" parent="1" vertex="1">
                    <mxGeometry x="3361" y="2431" width="60" height="21" as="geometry"/>
                </mxCell>
                <mxCell id="186" value="Execer" style="rounded=0;whiteSpace=wrap;html=1;fontFamily=Courier New;fontSize=14;fontColor=#000000;strokeColor=#000000;fillColor=#F0F0F0;" parent="1" vertex="1">
                    <mxGeometry x="3099.94" y="3004" width="119" height="52" as="geometry"/>
                </mxCell>
                <mxCell id="187" value="Execer" style="rounded=0;whiteSpace=wrap;html=1;fontFamily=Courier New;fontSize=14;fontColor=#000000;strokeColor=#000000;fillColor=#F0F0F0;" parent="1" vertex="1">
                    <mxGeometry x="3244.88" y="3004" width="119" height="52" as="geometry"/>
                </mxCell>
                <mxCell id="188" value="Execer" style="rounded=0;whiteSpace=wrap;html=1;fontFamily=Courier New;fontSize=14;fontColor=#000000;strokeColor=#000000;fillColor=#F0F0F0;" parent="1" vertex="1">
                    <mxGeometry x="3390.94" y="3004" width="119" height="52" as="geometry"/>
                </mxCell>
                <mxCell id="193" value="child" style="text;html=1;align=center;verticalAlign=middle;resizable=0;points=[];autosize=1;strokeColor=none;fillColor=none;fontSize=14;fontFamily=Courier New;fontColor=#000000;" parent="1" vertex="1">
                    <mxGeometry x="3300.94" y="2923" width="52" height="21" as="geometry"/>
                </mxCell>
                <mxCell id="196" value="" style="group" parent="1" vertex="1" connectable="0">
                    <mxGeometry x="1017" y="3651" width="857" height="480" as="geometry"/>
                </mxCell>
                <mxCell id="194" value="" style="rounded=0;whiteSpace=wrap;html=1;fillColor=#FFFFFF;strokeColor=#000000;strokeWidth=2;" parent="196" vertex="1">
                    <mxGeometry width="857" height="480" as="geometry"/>
                </mxCell>
                <mxCell id="195" value="&lt;font color=&quot;#000000&quot; style=&quot;font-size: 18px&quot; face=&quot;Courier New&quot;&gt;Runtime&lt;/font&gt;" style="text;html=1;align=center;verticalAlign=middle;resizable=0;points=[];autosize=1;strokeColor=none;fillColor=none;" parent="196" vertex="1">
                    <mxGeometry x="771" y="6" width="86" height="19" as="geometry"/>
                </mxCell>
                <mxCell id="200" value="Cache" style="ellipse;whiteSpace=wrap;html=1;aspect=fixed;fontFamily=Courier New;fontSize=18;fontColor=#000000;strokeColor=#000000;strokeWidth=2;fillColor=#FFFFFF;" parent="196" vertex="1">
                    <mxGeometry x="614" y="149.5" width="181" height="181" as="geometry"/>
                </mxCell>
                <mxCell id="201" value="" style="group" parent="1" vertex="1" connectable="0">
                    <mxGeometry x="2321" y="3651" width="857" height="480" as="geometry"/>
                </mxCell>
                <mxCell id="202" value="" style="rounded=0;whiteSpace=wrap;html=1;fillColor=#FFFFFF;strokeColor=#000000;strokeWidth=2;" parent="201" vertex="1">
                    <mxGeometry width="857" height="480" as="geometry"/>
                </mxCell>
                <mxCell id="203" value="&lt;font color=&quot;#000000&quot; style=&quot;font-size: 18px&quot; face=&quot;Courier New&quot;&gt;Runtime&lt;/font&gt;" style="text;html=1;align=center;verticalAlign=middle;resizable=0;points=[];autosize=1;strokeColor=none;fillColor=none;" parent="201" vertex="1">
                    <mxGeometry x="771" y="6" width="86" height="19" as="geometry"/>
                </mxCell>
                <mxCell id="210" style="edgeStyle=none;html=1;exitX=1;exitY=0.5;exitDx=0;exitDy=0;fontFamily=Courier New;fontSize=18;fontColor=#000000;endArrow=classicThin;endFill=0;strokeColor=#000000;strokeWidth=2;" parent="201" source="204" target="209" edge="1">
                    <mxGeometry relative="1" as="geometry"/>
                </mxCell>
                <mxCell id="204" value="Cache" style="ellipse;whiteSpace=wrap;html=1;aspect=fixed;fontFamily=Courier New;fontSize=18;fontColor=#000000;strokeColor=#000000;strokeWidth=2;fillColor=#FFFFFF;" parent="201" vertex="1">
                    <mxGeometry x="71" y="149.5" width="181" height="181" as="geometry"/>
                </mxCell>
                <mxCell id="209" value="subscription" style="rounded=0;whiteSpace=wrap;html=1;fontFamily=Courier New;fontSize=18;fontColor=#000000;strokeColor=#000000;strokeWidth=2;fillColor=#FFFFFF;" parent="201" vertex="1">
                    <mxGeometry x="427" y="210" width="184" height="54" as="geometry"/>
                </mxCell>
                <mxCell id="205" style="edgeStyle=none;html=1;exitX=1;exitY=0.5;exitDx=0;exitDy=0;entryX=0;entryY=0.5;entryDx=0;entryDy=0;fontFamily=Courier New;fontSize=18;fontColor=#000000;strokeColor=#000000;endArrow=classicThin;endFill=0;strokeWidth=2;" parent="1" source="200" target="204" edge="1">
                    <mxGeometry relative="1" as="geometry"/>
                </mxCell>
                <mxCell id="207" style="edgeStyle=none;html=1;exitX=0;exitY=0.5;exitDx=0;exitDy=0;fontFamily=Courier New;fontSize=18;fontColor=#000000;endArrow=classicThin;endFill=0;strokeColor=#000000;strokeWidth=2;" parent="1" source="204" target="200" edge="1">
                    <mxGeometry relative="1" as="geometry"/>
                </mxCell>
                <mxCell id="208" value="sync via tentacles" style="text;html=1;align=center;verticalAlign=middle;resizable=0;points=[];autosize=1;strokeColor=none;fillColor=none;fontSize=18;fontFamily=Courier New;fontColor=#000000;" parent="1" vertex="1">
                    <mxGeometry x="1988" y="3861" width="204" height="26" as="geometry"/>
                </mxCell>
                <mxCell id="225" style="edgeStyle=orthogonalEdgeStyle;html=1;exitX=0.5;exitY=1;exitDx=0;exitDy=0;fontFamily=Courier New;fontColor=#FFFFFF;strokeColor=#000000;" edge="1" parent="1" source="211" target="216">
                    <mxGeometry relative="1" as="geometry"/>
                </mxCell>
                <mxCell id="226" style="edgeStyle=orthogonalEdgeStyle;html=1;exitX=0.5;exitY=1;exitDx=0;exitDy=0;fontFamily=Courier New;fontColor=#FFFFFF;strokeColor=#000000;" edge="1" parent="1" source="211" target="214">
                    <mxGeometry relative="1" as="geometry"/>
                </mxCell>
                <mxCell id="211" value="&lt;font face=&quot;Courier New&quot;&gt;Event&lt;/font&gt;" style="rounded=0;whiteSpace=wrap;html=1;" vertex="1" parent="1">
                    <mxGeometry x="390" y="5277" width="120" height="60" as="geometry"/>
                </mxCell>
                <mxCell id="228" style="edgeStyle=orthogonalEdgeStyle;html=1;exitX=0;exitY=0.5;exitDx=0;exitDy=0;entryX=1;entryY=0.5;entryDx=0;entryDy=0;fontFamily=Courier New;fontColor=#000000;strokeColor=#000000;" edge="1" parent="1" source="214" target="216">
                    <mxGeometry relative="1" as="geometry"/>
                </mxCell>
                <mxCell id="214" value="Feed" style="rounded=0;whiteSpace=wrap;html=1;fontFamily=Courier New;" vertex="1" parent="1">
                    <mxGeometry x="524.5" y="5460" width="94" height="98" as="geometry"/>
                </mxCell>
                <mxCell id="216" value="" style="rounded=0;whiteSpace=wrap;html=1;fontFamily=Courier New;" vertex="1" parent="1">
                    <mxGeometry x="211" y="5460" width="244" height="98" as="geometry"/>
                </mxCell>
                <mxCell id="217" value="&lt;font color=&quot;#ffffff&quot;&gt;Execer&lt;/font&gt;" style="text;html=1;align=center;verticalAlign=middle;resizable=0;points=[];autosize=1;strokeColor=none;fillColor=none;fontFamily=Courier New;" vertex="1" parent="1">
                    <mxGeometry x="395" y="5465" width="53" height="18" as="geometry"/>
                </mxCell>
                <mxCell id="218" value="preFuncs" style="rounded=0;whiteSpace=wrap;html=1;fontFamily=Courier New;fontColor=#FFFFFF;" vertex="1" parent="1">
                    <mxGeometry x="289.5" y="5480" width="84" height="21" as="geometry"/>
                </mxCell>
                <mxCell id="219" value="execFunc" style="rounded=0;whiteSpace=wrap;html=1;fontFamily=Courier New;fontColor=#FFFFFF;" vertex="1" parent="1">
                    <mxGeometry x="289.5" y="5501" width="84" height="21" as="geometry"/>
                </mxCell>
                <mxCell id="220" value="postFuncs" style="rounded=0;whiteSpace=wrap;html=1;fontFamily=Courier New;fontColor=#FFFFFF;" vertex="1" parent="1">
                    <mxGeometry x="289.5" y="5522" width="84" height="21" as="geometry"/>
                </mxCell>
                <mxCell id="227" value="&lt;font color=&quot;#000000&quot;&gt;prepare event&lt;/font&gt;" style="text;html=1;align=center;verticalAlign=middle;resizable=0;points=[];autosize=1;strokeColor=none;fillColor=none;fontFamily=Courier New;fontColor=#FFFFFF;" vertex="1" parent="1">
                    <mxGeometry x="391" y="5376" width="104" height="18" as="geometry"/>
                </mxCell>
                <mxCell id="229" value="exec" style="text;html=1;align=center;verticalAlign=middle;resizable=0;points=[];autosize=1;strokeColor=none;fillColor=none;fontFamily=Courier New;fontColor=#000000;" vertex="1" parent="1">
                    <mxGeometry x="471" y="5493" width="39" height="18" as="geometry"/>
                </mxCell>
            </root>
        </mxGraphModel>
    </diagram>
</mxfile>